<svg id="Layer_1" data-name="Layer 1" xmlns="http://www.w3.org/2000/svg" viewBox="0 0 2500 2500"><defs><style>.cls-1{fill:#f71b1b;}</style></defs><path class="cls-1" d="M2337.58,1062.06c-26.61-21.09-70.79-24.1-103.93-7-24.61,12.55-31.64,26.61-16.07,31.13,13.56,4.52,36.15,38.16,36.15,54.23,0,32.64-34.64,49.21-64.27,30.63-15.56-9.54-61.26-56.74-61.26-62.77,0-2.51-10.54-16.06-23.6-30.12-47.7-51.22-101.92-62.26-168.7-34.15-55.24,23.1-91.39,57.75-106,102.43-6,18.08,7.53,47.2,40.17,86.37,67.28,81.34,94.4,165.69,94.9,295.74,0,170.72-56.24,321.85-158.17,424.28-92.38,93.39-181.76,112-257.08,53.73-10.54-8-19.08-17.58-19.08-22.1,0-4,12-20.08,26.62-35.65,85.35-91.38,143.6-202.35,169.21-323.35,18.07-85.86,8.53-169.21-25.61-225-33.14-53.72-92.89-81.84-175.24-82.34-123.52-.51-215.9,77.32-262.6,221.93-9.54,29.62-10.54,44.69-10.54,126.53,0,96.4,3.51,123.52,24.6,188.29,15.06,45.69,23.1,63.77,44.69,101.93,10,17.57,18.07,35.15,18.07,38.66,0,8-35.15,37.66-58.74,49.71-26.11,13-76.83,10.54-111-5.52-103.94-48.71-143.1-163.69-119-348,20.08-151.63,62.76-287.7,163.19-514.66,2.51-5.52,9-21.59,15.06-35.14,11-26.62,12-28.12,33.14-75.32,7-16.57,20.58-47.2,29.62-67.79s20.59-47.7,26.61-60.25c5.53-12.55,18.08-40.17,28.12-61.76,9.54-21.09,20.59-39.66,24.1-41.17s60.76-3.52,127-4.52c194.31-3.51,293.23-26.11,386.62-87.37,108.46-71.8,182.27-186.78,217.41-337.41,11.55-49.21,21.59-145.62,20.09-193.32l-1.51-50.21L2078,203.45c-51.21,48.21-70.79,63.27-120.5,92.89-142.1,83.35-308.8,127.54-607.55,160.18-43.19,5-192.81,23.09-248.55,30.12C908.08,511.25,740.88,573,578.19,680,445.64,766.82,322.62,886.32,246.8,1000.8c-41.17,62.26-80.84,145.61-99.42,208.88-15.06,51.72-17.57,62.76-25.1,115-27.11,190.3,21.59,325.87,136.07,377.59,17.57,8,37.16,14.56,43.18,14.56,7.53,0,46.2-28.62,110-81.84,53.73-44.69,108-89.38,120-99.42,12-9.54,20.08-20.09,18.58-23.1-2-3-15.57-8.53-29.63-11.55-151.64-35.65-242-188.29-206.87-348,31.64-145.61,131.05-258.58,269.64-307.79C648.49,822.05,762.47,807,879,806c91.88-.5,89.87-2.51,68.79,70.3-8.54,30.13-18.58,65.78-22.6,79.83-3.51,13.56-13.56,51.22-22.59,82.85-57.75,211.89-89.88,351.48-118,519.69-11,63.76-13,92.38-13.56,188.29-.5,101.42.51,118,11,163.18,37.16,161.68,132.05,249.55,309.3,286.2,96.4,19.59,179.25-2,272.64-71.3,23.1-17.57,45.19-31.63,48.21-31.63,3.51,0,22.09,14.56,41.17,32.64,60.75,57.74,120,79.33,217.41,78.83,69.29,0,104.94-8,163.19-36.65,79.33-39.17,161.68-121,219.92-217.92,22.09-36.65,64.27-120.51,79.33-158.16,6-15.07,13.06-32.14,15.57-37.66,7.53-17.07,29.62-88.88,39.67-130.55,17.07-70.3,25.6-142.1,24.6-210.38-1-62.27-.5-65.28,10-74.32,6.53-5,15.07-9,19.08-9,24.61,0,84.86-45.7,106.45-79.84C2392.31,1179.05,2387.79,1101.73,2337.58,1062.06Zm-892.75,764.71c-25.6-48.7-35.65-197.33-16.06-240.51,12-26.11,27.61-41.67,49.2-49.21,20.09-7,20.59-7,39.67,1h0c35.65,15.06,47.2,59.25,28.62,113.48-17.57,51.21-60.76,147.62-77.32,171.72C1457.89,1840.33,1452.37,1840.83,1444.83,1826.77Z"/></svg>